<?xml version="1.0" encoding="utf-8"?>
<!-- Generator: Adobe Illustrator 27.6.1, SVG Export Plug-In . SVG Version: 6.00 Build 0)  -->
<svg version="1.1" id="Layer_1" xmlns="http://www.w3.org/2000/svg" xmlns:xlink="http://www.w3.org/1999/xlink" x="0px" y="0px"
	 viewBox="0 0 82.1 81.8" style="enable-background:new 0 0 82.1 81.8;" xml:space="preserve">
<style type="text/css">
	.st0{fill:#FEEC5E;stroke:#231F20;stroke-miterlimit:10;}
</style>
<polygon class="st0" points="44.4,44.4 42.7,81.1 39.4,81.1 37.7,44.4 "/>
<polygon class="st0" points="5.8,63.4 1.1,68.1 16.4,81.1 18.7,78.7 "/>
<polygon class="st0" points="76.3,63.4 63.4,78.7 65.7,81.1 81.1,68.1 "/>
<polygon class="st0" points="22,57.6 15.8,60.2 26.3,81.1 29.4,79.8 "/>
<path class="st0" d="M64.4,17.4l-16.1-2.3L41.1,1.1l-7.2,14.1l-16.1,2.3l11.7,11l-2.7,15.5l14.4-7.3l14.4,7.3l-2.8-15.5L64.4,17.4z
	 M46.6,31.9l-5.5-2.8l-5.5,2.8l1-5.9l-4.2-3.9l5.8-0.8l2.9-5.6l2.9,5.6l5.8,0.8L45.5,26L46.6,31.9z"/>
<polygon class="st0" points="20.3,47.8 23.5,40.7 15.9,42.7 10.1,37.8 9.5,45.4 2.7,49.3 9.9,52 11.6,59.4 16.6,53.5 24.4,54.1 "/>
<polygon class="st0" points="60.1,57.6 52.7,79.8 55.8,81.1 66.3,60.2 "/>
<polygon class="st0" points="61.8,47.8 58.6,40.7 66.2,42.7 72,37.8 72.6,45.4 79.4,49.3 72.2,52 70.6,59.4 65.5,53.5 57.7,54.1 "/>
<polygon class="st0" points="8.7,6.1 11.1,1.1 6.1,3.5 1.1,1.1 3.4,6.1 1.1,11.1 6.1,8.7 11.1,11.1 "/>
<polygon class="st0" points="78.7,22.8 81.1,17.8 76.1,20.2 71.1,17.8 73.5,22.8 71.1,27.8 76.1,25.4 81.1,27.8 "/>
<circle class="st0" cx="63.6" cy="30.3" r="2.5"/>
<circle class="st0" cx="56.9" cy="8.6" r="2.5"/>
<circle class="st0" cx="71.9" cy="3.6" r="2.5"/>
<circle class="st0" cx="23.6" cy="8.6" r="2.5"/>
<circle class="st0" cx="8.6" cy="18.6" r="2.5"/>
<circle class="st0" cx="16.9" cy="30.3" r="2.5"/>
<circle class="st0" cx="51.9" cy="51.9" r="2.5"/>
<circle class="st0" cx="31.9" cy="58.6" r="2.5"/>
</svg>
